<svg id="a66ab409-600d-4348-a8f5-f399a7787c1e" data-name="Layer 1" xmlns="http://www.w3.org/2000/svg" viewBox="0 0 260 260"><defs><style>.a198a03b-18b4-47e0-ab57-d35cd6cf3ffd{fill:#fff;}</style></defs><path class="a198a03b-18b4-47e0-ab57-d35cd6cf3ffd" d="M173,484V224H433V484Zm90.08-36.92a11.74,11.74,0,0,1-1.68,2.23,43.21,43.21,0,0,1-3.62,2.44c-.19-1.53-.71-3.11-.47-4.57a25.06,25.06,0,0,1,1.86-5l-1.19-.4c-.92,2.44-2.18,4.82-2.63,7.35-.22,1.23.85,3.7,1.72,3.89a5.55,5.55,0,0,0,4.5-1.48c1-1,1-3,1.41-4.57l3.88-.6a16.33,16.33,0,0,1,.2,3.18c-.22,1.77-.69,3.5-1.31,6.44,2.25-4.05,3.83-6.92,5.54-10a24.74,24.74,0,0,0-5.49-1.35C264.93,444.62,264,446.23,263.08,447.08Zm91-4.94.17.17c-.55-3.65-3.11-4.44-5.79-3-3.16,1.66-2.81,5.1-1,7.33,1.2,1.47,4.45,2.76,6,2.14C356.66,447.46,356.92,444.66,354.11,442.14ZM206.44,401.33,202.2,406l6.74-2.83-3.85,7.41.82.56L213.1,407l-4.58.29,3.74-6.52-.75-.82-3.87,1.56c.56-1,1.21-2,1.67-3,1.47-3.34.11-5.92-3.42-5.62a12.57,12.57,0,0,0-6.36,2.94c-.7.57-.4,4,.25,4.26C201.79,401,204.19,401,206.44,401.33ZM369,431.93a6.87,6.87,0,0,0-2.2-1c-1.63-.09-4-.52-4.72.33a6.24,6.24,0,0,0-.91,5.19c1,2.86,3.14,5.67,6.7,4.22,3.79-1.54,2.77-4.66,1.3-7.52a6.13,6.13,0,0,1-.34-1.42c1.51,1,3,2.81,4.52,2.78a8.24,8.24,0,0,0,5.13-2.74c.48-.52-.71-2.84-1.5-4.11-.15-.24-2,.59-2.83.84l3,2.4c-1.13.72-2.9,2.28-3.26,2-1.56-1.22-3.35-2.81-3.77-4.57-.23-1,2.11-2.53,3.14-3.65C368.93,423.51,367.43,425.67,369,431.93Zm-126.9-157c-.9.74-2.4,1.37-2.55,2.24-.31,1.72,6.28,5.94,8.63,5.8l1.75-1.78,4.77-2.38-6.93-10.64c4.25-3.51,5.1.12,6.57,2.25s3.07,4.48,4.61,6.72l.81-.6L253.23,265l3.85-1.87c2,4.12,3.8,7.93,5.63,11.74l1-.52c-1.56-3.9-3.13-7.8-4.77-11.89l6.17-3.2a34.05,34.05,0,0,0,.8,5.38A15.48,15.48,0,0,0,268,268l1-.87a28.3,28.3,0,0,1-1.08-4.26,28.25,28.25,0,0,1,.16-4.4c1.07,1.15,2.44,2.14,3.13,3.48,1.31,2.58,2.24,5.35,3.32,8l.93-.43-4.33-13.14c4.45,1,8-3.32,11.26.93-.81.64-1.8.34-2.37.7a37.45,37.45,0,0,0-3.8,3.14c1.3,1.29,2.4,2.9,3.93,3.78,1.72,1,3.81,1.31,5.74,1.92-.09-2.74-2.12-7,2.87-9.41l-4,.67c-2.34-4,.67-4.22,3.07-4.58s5.53-2,6.06,2.48c.43,3.59.88,7.18,1.32,10.76l1.61-.14V251.42a26.81,26.81,0,0,0-3.29-3.8c-1.18-1-2.81-2-4.17-1.94-.9.06-1.68,2.06-3,3.82,2.16-1.11,3.45-2.3,4.53-2.14s1.7,1.79,2.59,2.83l-26.39,5.95.08.12c-3-.65-6.11-2-9-1.74-2.66.27-3.92,2.78-2.52,5.8.16.36-1,1.58-1.72,2.05-4.58,2.91-9.2,5.74-13.84,8.54-3.47,2.1-6.26,5.67-11.12,4.87-1.21-.2-2.61.72-3.92,1.13l.41,1.19,7-1.34-10.56,10.07,10.58,3.52-.29,4.34.87.23,2.38-6.05,3.59,2.77c-1.05-2.74-3.05-4.54-4.78-6.57-1.47-1.73-5.51-3.41-.62-6.15l8.45,9.19.88-.82-8-9.91,7-5.15v2.84ZM357.24,409.08c-.17-.62-.34-1.24-.7-2.6-9.18,13.75-23.17,18.24-37,21.26.75,3.23,1.38,5.95,2.08,9l2.76,1.11-2.73-9.23c6.67-.62,4.1,6.76,8.56,8.46-1.24-3.51-2.25-6.37-3.44-9.72,3.56.06,6.1-4.18,8.4-1.53,1.92-.79,3.46-2,4.85-1.86a77.73,77.73,0,0,1,9.42,2.07l.35-1.14c-1.23-1.74-2.46-3.48-3.93-5.58,1.42-.78,3.36-2.26,3.71-2,1.18,1.06,1.81,2.74,3,4.85l2.45-3.3Q356.17,414,357.24,409.08Zm30.39-118.79c.07-.43,0-1,.23-1.26,2.46-3.11.6-5.68-1.23-8s-4.24-2.16-6.39,0c-2.84,2.88-5.75,5.7-8.59,8.59-.9.92-1.66,2-2.48,3l.67.49,9.86-8.47,5.46,5.83L377,292.39l6.21,8.67-4.34,2.45.88,1,10.59-8.3,7.47,12.19L396.31,310a34.33,34.33,0,0,1-3.56-3c-1.1-1.2-2.26-3.91-2.83-3.77-1.87.48-3.48,2-5.19,3.05l.53.48,5.4-1.34v4.72l4.73,2.53-.21,1.37-6.42,1.43c6.61,4.39,6.86-2.2,9-5.57,1.46,1.75,2.49,3,3.51,4.22l1.64-1.12-15.14-22.87Zm-117,138.65.11-.23-4.46,1.85,14.35,8.17c.42-.87,1.27-2.63,2.11-4.41,1.43-3,6.44-4.39,9.09-2.39.44.33.92,1.23.76,1.58a2.69,2.69,0,0,1-1.61,1.43,33.15,33.15,0,0,1-4.36.34l.15,1.56,5.59-.52.27,4.69.65,0c.64-3.22,1.27-6.45,1.91-9.67l1.71.32,1.59,8.71.71-.1v-8.75l10.27-.71c.34,7.21.34,7.21,2.63,8.76l-.72-8.38.89-.55,4.3,4.78,3.14-3.3c-2.43-1.14-4.34-2.82-6.27-2.83-8.79-.05-17.67,1.2-26.35.34-6.88-.68-13.51-3.76-20.26-5.77l.45-1.95H272l-.21-1.6-9.13,1.37c-3.83-3.61-8.61-8.11-13.73-12.91l3.74,7-7.54-4.05c2.73,2.32,5.21,4.64,9,5.55s6.65,4.5,9.94,6.92l-4.57,8,.77.48,6.31-8.91C268.21,425.84,269.4,427.39,270.6,428.94ZM210.66,324.77c-3.54.93-4-1-3.71-3.85a18.43,18.43,0,0,0-.17-3.47c-.13-1.47-.31-2.94-.56-5.19l13.05,5.42.49-1.17-12.23-6.42c2-2.31,3.62-4.11,5.21-5.9l3.32,6,7.79-5.29,2.67.9.4-.67-11.74-9.65c-2,3-4.77,6.36-6.76,10.12-1.39,2.6-2.41,4.4-5.85,3.88-1.09-.16-3,1.37-3.55,2.57-.4,1,.8,2.59,1.29,3.92-.49-5-.35-5.13,4.76-4.63-4.81,11.46-9.7,22.83-9.33,35.56l1.73-3.93,7.44,3.75,1-2.09-8.66-3.79,1.27-4L211,339.68l.22-1.26c-2.67-.73-5.34-1.48-8-2.19-4.87-1.29-4.87-1.28-3.4-3.84,3.36-.51,6.46-.23,8.55-1.55,1.45-.91,1.51-4,2.22-6.14l4.41,5v-8.59l-3.3-1.14Zm89.84,51.1c12.07.05,22.42-9.36,22.33-20.29-.09-10.76-10.26-20.11-22-20.23S279,344.58,278.9,355.51,288.7,375.83,300.5,375.87Zm32.57,30.67-.95-1.34a64.88,64.88,0,0,1-32.86-2.91,16.41,16.41,0,0,0-6.4-.64c-8.49.66-12.53,8.8-7.18,15.39,2,2.48,6.15,4.11,9.5,4.48,11.49,1.28,22.08-1.91,31.53-8.49C329.16,411.33,331,408.73,333.07,406.54Zm-82.59-87.37a83.89,83.89,0,0,1,33.39-7.83,17.48,17.48,0,0,0,9.44-3.78c3.33-2.57,3.58-6.58,1.66-10.42-2.31-4.65-7-6.87-12.61-5.69-12.31,2.6-21.78,9.54-28.8,19.79C252,313.52,251.48,316.51,250.48,319.17Zm46.19-23.75a21.74,21.74,0,0,0,3.46,2c9.39,2.75,17.79,7.15,24.7,14.24a17.85,17.85,0,0,0,4.92,3.37c6.08,2.95,14.33,2,14.69-8.22.15-4.25-1.8-7-5-9.08-11.75-7.56-24.5-8.62-37.78-5.22C300.18,292.93,298.89,294.12,296.67,295.42Zm-53.08,75.24c1.42-12.11,5.58-22.44,11.48-32.22a13.93,13.93,0,0,0,1.66-5.19c1-7.47-4.07-12.12-11.51-10.78-4.54.82-6.86,3.92-8.23,7.83-4.15,11.89-3.58,23.58,2.2,34.84C240.24,367.19,242.1,368.83,243.59,370.66ZM277.5,411l.72-2.06c-2.57-2.77-5.62-5.23-7.6-8.37-4.11-6.56-7.66-13.48-11.44-20.24-3.33-5.95-9.59-8.71-13.91-6.14-5.78,3.43-7.25,9.61-3.43,16a39.59,39.59,0,0,0,20.71,17.11C267.33,409.08,272.5,409.78,277.5,411Zm68.6-95.82c1.56,9.4,3.09,17.52,4.15,25.69.47,3.59-.38,7.33,0,11,.41,4.31,2.15,8.88,6.7,9.47,3.32.43,8.28-.84,10.16-3.21,2.2-2.78,3-7.77,2.38-11.47a44.14,44.14,0,0,0-14.31-25.67C352.6,318.6,349.28,317.13,346.1,315.15Zm16.5,49.29c-5,6-9.57,11.88-14.69,17.24-3.06,3.2-7.28,5.27-10.54,8.32-4.82,4.48-5.33,9.84-1.83,13.71,3.91,4.33,10.56,4.65,15.23.39a41.88,41.88,0,0,0,12.76-22.69C364.75,375.69,365.75,369.93,362.6,364.44ZM324.8,261l-1.15,1.18c2.51.72,5.21,1.08,7.49,2.25,3,1.52,5.58,3.68,8.45,5.63-.1.83-.22,1.93-.45,4,7.07-12.12,7.07-12.12,9.67-10.47l-5.19,11.34,1.19.5,6.38-11.86,9.5,6L357.46,273l-5.4-3-1,1.64,5.7,3.06-3.32,7.42c5.2-3.67,4.41-11,11-12-11.82-10.73-43.22-20.91-56.93-18.53l5.41,2.6c-1.55,1.88-2.76,3.34-4.38,5.28l2.2,3.37c1.88-5.27,4.91-.59,7.15-1.56.12,2.12.2,3.73.29,5.33a12.82,12.82,0,0,0,1.88-6.34c.52-7.42,1.1-7.75,8.66-3.63Zm71.47,65.93-2.77,5.38,12.53-4.7c.69,2.47,1.28,4.55,2.19,7.82-2.48-.49-4-.9-5.45-1a16.59,16.59,0,0,0-3.19.32l.24,1.8,11.51,1.42c-2.65-7.77-5.25-15.39-7.86-23l-1.74.53c1.06,3.46,2.13,6.92,3.53,11.48Zm-82,126.28-.62-1.57,5.74-2.84L304,450.06c5.8,1.47,1.39,7.6,5,10a40.63,40.63,0,0,1-.24-6.13c.11-1,1.16-1.89,1.79-2.82a12.81,12.81,0,0,1,2,2.25,7,7,0,0,1,.4,2.43c.63,5.05,2.18,5.73,6.23,3.11l-4.7-1.41,4-4.28Zm95.08-86-.34-.75c-1.64.45-3.41,1.53-4.91,1.23-6-1.19-6.59-.73-5.5,5.76l10.05.78.18-.66L404,371.06ZM279.06,448.71l.11-1-6.14-1-1.95,10.93,6.46,1.23-4.45-4.36,4.46-1.57-3.91-2.73.43-1Zm-39.71-14.52,1-.67c-.82-1.25-1.4-2.9-2.55-3.62-.76-.46-3.16.14-3.4.8-.48,1.27.08,2.91.14,4.41.05,1.21,0,2.42,0,3.63-.85-.9-1.72-1.79-2.55-2.71a12.75,12.75,0,0,1-.81-1.12l-1.44,1.31c1.41,1.44,3.1,4.31,4.19,4.1,7.12-1.37.51-6.19,2-10.25Zm54.84,20.51c-2.65-2.45-4.19-5-6.18-5.46-3.84-.8-4.9,3-4.6,5.53.25,2,2.81,3.78,4.35,5.66Zm90.8-43,2.73-3.28c-1.83.06-3.6.68-4.16,1.87-.4.85.55,3.27,1.38,3.54,1.22.41,2.85-.58,4.34-.75a17.38,17.38,0,0,1,3.2.21,12.39,12.39,0,0,1-1.67,2.52c-.5.47-1.41.49-2.13.71l.86,1.51c1.37-.88,3.07-1.52,4-2.75.55-.71,0-3.4-.26-3.42A79.29,79.29,0,0,0,385,411.69Zm-166.74-1.42-.75-1.16-10.61,3.36c5-.27,5.82,2.18,5.15,6.37ZM394,389.42l10.78,2.67.31-1-3.69-1.7c-.58-5.13,3.26-2.91,5.51-4.14l-9.18-2.48,2.07,4.6ZM204.11,378.55l-.3-1.47-10.47-1.46c3.55,2.23,4.76,4.19,1.5,7.61Zm193.58-1.35-.3,1.42,6.27,3.24,4.82-6.4ZM222.12,431l.7.63,5.23-4.88-1.37,8.52,1,.36,3.4-3.74-1.3-.14V421.8C226.55,425.65,224.34,428.32,222.12,431Zm174-39.49-.55-1c-1.06,1.45-3.29,3.38-2.93,4.25a9.59,9.59,0,0,0,4.55,5c1.47.62,4.19-.22,5.56-1.36.78-.66,0-3.21-.13-5.35-1.09,2.51-1.83,5.39-2.42,5.36a9.34,9.34,0,0,1-5.55-2.19C394.11,395.72,395.55,393.12,396.1,391.49Zm-69,57.26.23-.87c-1.61,0-4.32-.54-4.64.1a11.74,11.74,0,0,0-1.36,6.73,5.74,5.74,0,0,0,3.78,3.82c1.29.21,2.94-1.8,5.28-3.4-3.2.64-5.92,1.74-6.34,1.17a8.89,8.89,0,0,1-1.58-5.79C322.51,449.75,325.43,449.32,327.06,448.75Zm4.21,1.73-1.4-.83c.48,2.12,1,4.23,1.44,6.29.82-1.78,1.47-3.22,2.13-4.67l5.21,3.71-2.59-8.45Zm42.72-29-.53,1,9.63,4.21-4.55-9.1-.54.23c.3,1.34.59,2.67,1,4.47ZM249.41,449.7c2.22-3.24,4.13-6,6.22-9.06l-3.2-1.68C251.48,442.32,250.57,445.59,249.41,449.7Zm44.45,10.38,4.23-5.14-4.42-3.14,6-.9v-.64l-5.32-1.06c-.3,3.28-.6,6.05-.79,8.83A8.09,8.09,0,0,0,293.86,460.08Z" transform="translate(-173 -224)"/><path d="M300.5,375.87c-11.8,0-21.7-9.37-21.6-20.36s10.25-20.28,21.92-20.16,21.92,9.47,22,20.23C322.92,366.51,312.57,375.92,300.5,375.87Zm.36-34c-8.69-.07-15.87,6.31-15.75,14,.1,7.46,7.32,13.87,15.57,13.82,8.61-.05,15.43-6,15.64-13.65C316.54,348,309.87,341.91,300.86,341.84Z" transform="translate(-173 -224)"/><path d="M333.07,406.54c-2.1,2.19-3.91,4.79-6.36,6.49-9.45,6.58-20,9.77-31.53,8.49-3.35-.37-7.49-2-9.5-4.48-5.35-6.59-1.31-14.73,7.18-15.39a16.41,16.41,0,0,1,6.4.64,64.88,64.88,0,0,0,32.86,2.91Z" transform="translate(-173 -224)"/><path d="M250.48,319.17c1-2.66,1.52-5.65,3.08-7.93,7-10.25,16.49-17.19,28.8-19.79,5.58-1.18,10.3,1,12.61,5.69,1.92,3.84,1.67,7.85-1.66,10.42a17.48,17.48,0,0,1-9.44,3.78A83.89,83.89,0,0,0,250.48,319.17Z" transform="translate(-173 -224)"/><path d="M296.67,295.42c2.22-1.3,3.51-2.49,5-2.87,13.28-3.4,26-2.34,37.78,5.22,3.18,2,5.13,4.83,5,9.08-.36,10.22-8.61,11.17-14.69,8.22a17.85,17.85,0,0,1-4.92-3.37c-6.91-7.09-15.31-11.49-24.7-14.24A21.74,21.74,0,0,1,296.67,295.42Z" transform="translate(-173 -224)"/><path d="M243.59,370.66c-1.49-1.83-3.35-3.47-4.4-5.52-5.78-11.26-6.35-22.95-2.2-34.84,1.37-3.91,3.69-7,8.23-7.83,7.44-1.34,12.56,3.31,11.51,10.78a13.93,13.93,0,0,1-1.66,5.19C249.17,348.22,245,358.55,243.59,370.66Z" transform="translate(-173 -224)"/><path d="M277.5,411c-5-1.19-10.17-1.89-14.95-3.67a39.59,39.59,0,0,1-20.71-17.11c-3.82-6.42-2.35-12.6,3.43-16,4.32-2.57,10.58.19,13.91,6.14,3.78,6.76,7.33,13.68,11.44,20.24,2,3.14,5,5.6,7.6,8.37Z" transform="translate(-173 -224)"/><path d="M346.1,315.15c3.18,2,6.5,3.45,9,5.76a44.14,44.14,0,0,1,14.31,25.67c.62,3.7-.18,8.69-2.38,11.47-1.88,2.37-6.84,3.64-10.16,3.21-4.55-.59-6.29-5.16-6.7-9.47-.35-3.62.5-7.36,0-11C349.19,332.67,347.66,324.55,346.1,315.15Z" transform="translate(-173 -224)"/><path d="M362.6,364.44c3.15,5.49,2.15,11.25.93,17a41.88,41.88,0,0,1-12.76,22.69c-4.67,4.26-11.32,3.94-15.23-.39-3.5-3.87-3-9.23,1.83-13.71,3.26-3.05,7.48-5.12,10.54-8.32C353,376.32,357.57,370.41,362.6,364.44Z" transform="translate(-173 -224)"/><path d="M267.11,256.14l26.39-5.95c-.89-1-1.63-2.69-2.59-2.83s-2.37,1-4.53,2.14c1.29-1.76,2.07-3.76,3-3.82,1.36-.09,3,1,4.17,1.94a26.81,26.81,0,0,1,3.29,3.8v15.21l-1.61.14c-.44-3.58-.89-7.17-1.32-10.76-.53-4.45-3.64-2.84-6.06-2.48s-5.41.57-3.07,4.58l4-.67c-5,2.41-3,6.67-2.87,9.41-1.93-.61-4-.93-5.74-1.92-1.53-.88-2.63-2.49-3.93-3.78a37.45,37.45,0,0,1,3.8-3.14c.57-.36,1.56-.06,2.37-.7-3.29-4.25-6.81.11-11.26-.93l4.33,13.14-.93.43c-1.08-2.69-2-5.46-3.32-8-.69-1.34-2.06-2.33-3.13-3.48a28.25,28.25,0,0,0-.16,4.4,28.3,28.3,0,0,0,1.08,4.26l-1,.87a15.48,15.48,0,0,1-2.06-3.28,34.05,34.05,0,0,1-.8-5.38L259,262.5c1.64,4.09,3.21,8,4.77,11.89l-1,.52c-1.83-3.81-3.66-7.62-5.63-11.74L253.23,265l6.52,11.5-.81.6c-1.54-2.24-3.06-4.48-4.61-6.72s-2.32-5.76-6.57-2.25l6.93,10.64-4.77,2.38c2.87-5.06-.9-8.15-3.95-12.62a44.3,44.3,0,0,1-2,4.23,16.1,16.1,0,0,1-2,2.27v-2.84l-7,5.15,8,9.91-.88.82-8.45-9.19c-4.89,2.74-.85,4.42.62,6.15,1.73,2,3.73,3.83,4.78,6.57l-3.59-2.77L233,294.92l-.87-.23.29-4.34-10.58-3.52,10.56-10.07-7,1.34-.41-1.19c1.31-.41,2.71-1.33,3.92-1.13,4.86.8,7.65-2.77,11.12-4.87,4.64-2.8,9.26-5.63,13.84-8.54.75-.47,1.88-1.69,1.72-2.05-1.4-3-.14-5.53,2.52-5.8,2.93-.29,6,1.09,9,1.74-6.59-2.31-9.59-1.24-9.38,4.08Z" transform="translate(-173 -224)"/><path d="M210.52,324.68c-.68,2.13-.74,5.25-2.19,6.16-2.09,1.32-5.19,1-8.55,1.55-1.47,2.56-1.47,2.55,3.4,3.84,2.68.71,5.35,1.46,8,2.19l-.22,1.26-12.47-2.81-1.27,4,8.66,3.79-1,2.09L197.47,343l-1.73,3.93c-.37-12.73,4.52-24.1,9.33-35.56-5.11-.5-5.25-.32-4.76,4.63-.49-1.33-1.69-3-1.29-3.92.51-1.2,2.46-2.73,3.55-2.57,3.44.52,4.46-1.28,5.85-3.88,2-3.76,4.72-7.13,6.76-10.12l11.74,9.65-.4.67-2.67-.9-7.79,5.29-3.32-6c-1.59,1.79-3.17,3.59-5.21,5.9l12.23,6.42-.49,1.17-13.05-5.42c.25,2.25.43,3.72.56,5.19a18.43,18.43,0,0,1,.17,3.47c-.27,2.82.17,4.78,3.71,3.85Zm6.56-15.61c1.6-2.17,3.68-4.05,3.35-4.7-1-2-3-3.51-4.54-5.21l-1.76.84Z" transform="translate(-173 -224)"/><path d="M324.8,261l3.92-4.3c-7.56-4.12-8.14-3.79-8.66,3.63a12.82,12.82,0,0,1-1.88,6.34c-.09-1.6-.17-3.21-.29-5.33-2.24,1-5.27-3.71-7.15,1.56l-2.2-3.37c1.62-1.94,2.83-3.4,4.38-5.28l-5.41-2.6c13.71-2.38,45.11,7.8,56.93,18.53-6.55.94-5.76,8.31-11,12l3.32-7.42-5.7-3.06,1-1.64,5.4,3,3.23-3.49-9.5-6-6.38,11.86-1.19-.5,5.19-11.34c-2.6-1.65-2.6-1.65-9.67,10.47.23-2.09.35-3.19.45-4-2.87-1.95-5.49-4.11-8.45-5.63-2.28-1.17-5-1.53-7.49-2.25Zm12.65,1.83-6.64-7.8C327.86,262.24,328.3,262.73,337.45,262.79ZM313.62,253a29.84,29.84,0,0,0,.52,5.87c.13.46,2.7.92,3,.51,1-1.37,1.59-3.14,2.54-5.23Zm21.28,13.3c1.82.63,4,1.85,4.39,1.43a52.16,52.16,0,0,0,4.56-6.69l-1.07-.68Z" transform="translate(-173 -224)"/><path d="M270.6,428.94c-1.2-1.55-2.39-3.1-4-5.14l-6.31,8.91-.77-.48,4.57-8c-3.29-2.42-6.28-6.05-9.94-6.92s-6.28-3.23-9-5.55l7.54,4.05-3.74-7c5.12,4.8,9.9,9.3,13.73,12.91l9.13-1.37.21,1.6h-4.78l-.45,1.95c6.75,2,13.38,5.09,20.26,5.77,8.68.86,17.56-.39,26.35-.34,1.93,0,3.84,1.69,6.27,2.83l-3.14,3.3-4.3-4.78-.89.55.72,8.38c-2.29-1.55-2.29-1.55-2.63-8.76l-10.27.71v8.75l-.71.1-1.59-8.71-1.71-.32c-.64,3.22-1.27,6.45-1.91,9.67l-.65,0-.27-4.69-5.59.52-.15-1.56a33.15,33.15,0,0,0,4.36-.34,2.69,2.69,0,0,0,1.61-1.43c.16-.35-.32-1.25-.76-1.58-2.65-2-7.66-.64-9.09,2.39-.84,1.78-1.69,3.54-2.11,4.41l-14.35-8.17,4.46-1.85c-.69,2.67.4,3.66,3,3.38s5.29-.45,7.71-.64C280.24,429.19,274.05,427.46,270.6,428.94Z" transform="translate(-173 -224)"/><path d="M387.76,290.18l15.14,22.87-1.64,1.12c-1-1.24-2.05-2.47-3.51-4.22-2.13,3.37-2.38,10-9,5.57l6.42-1.43.21-1.37-4.73-2.53v-4.72l-5.4,1.34-.53-.48c1.71-1.09,3.32-2.57,5.19-3.05.57-.14,1.73,2.57,2.83,3.77a34.33,34.33,0,0,0,3.56,3l1.48-1.62-7.47-12.19-10.59,8.3-.88-1,4.34-2.45L377,292.39l8.18-1.88-5.46-5.83-9.86,8.47-.67-.49c.82-1,1.58-2.06,2.48-3,2.84-2.89,5.75-5.71,8.59-8.59,2.15-2.18,4.47-2.44,6.39,0s3.69,4.85,1.23,8c-.23.3-.16.83-.22,1.25a67.08,67.08,0,0,0-2.52-8.35c-.2-.48-2.51-.07-5.08-.07Zm-2.66.47c-1.5,1.94-2.77,3.16-3.41,4.64-.21.49,1.34,2.49,1.9,2.41,1.68-.24,3.26-1.15,5.36-2C387.53,293.84,386.66,292.7,385.1,290.65Z" transform="translate(-173 -224)"/><path d="M355.1,419l-2.45,3.3c-1.22-2.11-1.85-3.79-3-4.85-.35-.31-2.29,1.17-3.71,2,1.47,2.1,2.7,3.84,3.93,5.58l-.35,1.14a77.73,77.73,0,0,0-9.42-2.07c-1.39-.15-2.93,1.07-4.85,1.86-2.3-2.65-4.84,1.59-8.4,1.53,1.19,3.35,2.2,6.21,3.44,9.72-4.46-1.7-1.89-9.08-8.56-8.46l2.73,9.23-2.76-1.11c-.7-3.08-1.33-5.8-2.08-9,13.78-3,27.77-7.51,37-21.26l.7,2.6-7,7.32Z" transform="translate(-173 -224)"/><path d="M396.27,326.89h9c-1.4-4.56-2.47-8-3.53-11.48l1.74-.53c2.61,7.63,5.21,15.25,7.86,23l-11.51-1.42-.24-1.8a16.59,16.59,0,0,1,3.19-.32c1.5.13,3,.54,5.45,1-.91-3.27-1.5-5.35-2.19-7.82l-12.53,4.7Z" transform="translate(-173 -224)"/><path class="a198a03b-18b4-47e0-ab57-d35cd6cf3ffd" d="M241.9,275.07a16.1,16.1,0,0,0,2-2.27,44.3,44.3,0,0,0,2-4.23c3.05,4.47,6.82,7.56,3.95,12.62L248.17,283c-3.82-1.05-3.37-3.06-1-5.2l-5.57.72.47-3.56Z" transform="translate(-173 -224)"/><path d="M314.3,453.17h4.23l-4,4.28,4.7,1.41c-4,2.62-5.6,1.94-6.23-3.11a7,7,0,0,0-.4-2.43,12.81,12.81,0,0,0-2-2.25c-.63.93-1.68,1.82-1.79,2.82A40.63,40.63,0,0,0,309,460c-3.64-2.36.77-8.49-5-10l15.42-1.3-5.74,2.84Z" transform="translate(-173 -224)"/><path d="M409.38,367.15,404,371.06l4.89,2.45-.18.66-10.05-.78c-1.09-6.49-.48-6.95,5.5-5.76,1.5.3,3.27-.78,4.91-1.23Z" transform="translate(-173 -224)"/><path d="M368.82,431.75a6.09,6.09,0,0,0,.34,1.43c1.47,2.86,2.49,6-1.3,7.52-3.56,1.45-5.68-1.36-6.7-4.22a6.24,6.24,0,0,1,.91-5.19c.7-.85,3.09-.42,4.72-.33a6.87,6.87,0,0,1,2.2,1Zm-4.13-1.62c-1.35,2.23-2.81,3.79-2.5,4.31a29.25,29.25,0,0,0,4.11,4.76c.87-.93,2.65-2.23,2.45-2.72C368,434.57,366.56,432.92,364.69,430.13Z" transform="translate(-173 -224)"/><path d="M369,431.93c-1.56-6.26-.06-8.42,4.26-7.21-1,1.12-3.37,2.69-3.14,3.65.42,1.76,2.21,3.35,3.77,4.57.36.27,2.13-1.29,3.26-2l-3-2.4c.8-.25,2.68-1.08,2.83-.84.79,1.27,2,3.59,1.5,4.11a8.24,8.24,0,0,1-5.13,2.74c-1.48,0-3-1.79-4.52-2.79Z" transform="translate(-173 -224)"/><path class="a198a03b-18b4-47e0-ab57-d35cd6cf3ffd" d="M355.1,419l-4.89-2.55,7-7.32Q356.17,414,355.1,419Z" transform="translate(-173 -224)"/><path d="M206.44,401.33c-2.25-.35-4.65-.36-6.66-1.25-.65-.29-.95-3.69-.25-4.26a12.57,12.57,0,0,1,6.36-2.94c3.53-.3,4.89,2.28,3.42,5.62-.46,1.05-1.11,2-1.67,3Zm.45-9-3.64-.08a28.64,28.64,0,0,0-2.72,5.71c-.12.46,2.56,2.47,3.34,2.16a9,9,0,0,0,4.35-3.71C208.69,395.55,207.39,393.71,206.89,392.32Z" transform="translate(-173 -224)"/><path d="M279.06,448.71l-5,.43-.43,1,3.91,2.73-4.46,1.57,4.45,4.36-6.46-1.23L273,446.67l6.14,1Z" transform="translate(-173 -224)"/><path d="M239.35,434.19l-3.45-4.12c-1.5,4.06,5.11,8.88-2,10.25-1.09.21-2.78-2.66-4.19-4.1l1.44-1.31A12.75,12.75,0,0,0,232,436c.83.92,1.7,1.81,2.55,2.71,0-1.21.05-2.42,0-3.63-.06-1.5-.62-3.14-.14-4.41.24-.66,2.64-1.26,3.4-.8,1.15.72,1.73,2.37,2.55,3.62Z" transform="translate(-173 -224)"/><path d="M294.19,454.7l-6.43,5.73c-1.54-1.88-4.1-3.63-4.35-5.66-.3-2.5.76-6.33,4.6-5.53C290,449.66,291.54,452.25,294.19,454.7Zm-5.31-4.37-1.79-.09c-.74,1.56-2.09,3.14-2,4.66.05,1.36,1.67,2.66,2.59,4,1.09-1.42,2.77-2.72,3.09-4.3C291,453.35,289.56,451.76,288.88,450.33Z" transform="translate(-173 -224)"/><path d="M385,411.69a79.29,79.29,0,0,1,8.29.16c.25,0,.81,2.71.26,3.42-.93,1.23-2.63,1.87-4,2.75l-.86-1.51c.72-.22,1.63-.24,2.13-.71a12.39,12.39,0,0,0,1.67-2.52,17.38,17.38,0,0,0-3.2-.21c-1.49.17-3.12,1.16-4.34.75-.83-.27-1.78-2.69-1.38-3.54.56-1.19,2.33-1.81,4.16-1.87Z" transform="translate(-173 -224)"/><path d="M218.25,410.27,212,418.84c.67-4.19-.14-6.64-5.15-6.37l10.61-3.36Z" transform="translate(-173 -224)"/><path d="M394,389.42l5.8-2-2.07-4.6,9.18,2.48c-2.25,1.23-6.09-1-5.51,4.14l3.69,1.7-.31,1Z" transform="translate(-173 -224)"/><path d="M206.44,401.33l1.2.2,3.87-1.56.75.82-3.74,6.52,4.58-.29-7.19,4.08-.82-.56,3.85-7.41L202.2,406Z" transform="translate(-173 -224)"/><path d="M354.11,442.14c2.81,2.52,2.55,5.32-.64,6.6-1.53.62-4.78-.67-6-2.14-1.81-2.23-2.16-5.67,1-7.33,2.68-1.4,5.24-.61,5.79,3a4.84,4.84,0,0,0-.89-.43c-1.56-.39-3.13-.75-4.69-1.12-.1,1.53-.71,3.3-.14,4.52s2.32,1.89,3.56,2.8c.64-1.48,1.32-2.95,1.9-4.45A4.8,4.8,0,0,0,354.11,442.14Z" transform="translate(-173 -224)"/><path d="M204.11,378.55l-9.27,4.68c3.26-3.42,2-5.38-1.5-7.61l10.47,1.46Z" transform="translate(-173 -224)"/><path d="M397.69,377.2l10.79-1.74-4.82,6.4-6.27-3.24Z" transform="translate(-173 -224)"/><path d="M222.12,431c2.22-2.66,4.43-5.33,7.63-9.18v9.93l1.3.14-3.4,3.74-1-.36,1.37-8.52-5.23,4.88Z" transform="translate(-173 -224)"/><path d="M396.1,391.49c-.55,1.63-2,4.23-1.47,4.71a9.34,9.34,0,0,0,5.55,2.19c.59,0,1.33-2.85,2.42-5.36.11,2.14.91,4.69.13,5.35-1.37,1.14-4.09,2-5.56,1.36a9.59,9.59,0,0,1-4.55-5c-.36-.87,1.87-2.8,2.93-4.25Z" transform="translate(-173 -224)"/><path d="M327.06,448.75c-1.63.57-4.55,1-4.63,1.76A8.89,8.89,0,0,0,324,456.3c.42.57,3.14-.53,6.34-1.17-2.34,1.6-4,3.61-5.28,3.4a5.74,5.74,0,0,1-3.78-3.82,11.74,11.74,0,0,1,1.36-6.73c.32-.64,3-.1,4.64-.1Z" transform="translate(-173 -224)"/><path d="M331.27,450.48l4.79-4,2.59,8.45-5.21-3.71c-.66,1.45-1.31,2.89-2.13,4.67-.47-2.06-1-4.17-1.44-6.29Z" transform="translate(-173 -224)"/><path class="a198a03b-18b4-47e0-ab57-d35cd6cf3ffd" d="M270.6,428.94c3.45-1.48,9.64.25,10.86,2.51-2.42.19-5.07.35-7.71.64s-3.73-.71-3-3.38Z" transform="translate(-173 -224)"/><path d="M263,447c-.43,1.56-.43,3.55-1.41,4.57a5.55,5.55,0,0,1-4.5,1.48c-.87-.19-1.94-2.66-1.72-3.89.45-2.53,1.71-4.91,2.63-7.35l1.19.4a25.06,25.06,0,0,0-1.86,5c-.24,1.46.28,3,.47,4.57a43.21,43.21,0,0,0,3.62-2.44,11.74,11.74,0,0,0,1.68-2.23Z" transform="translate(-173 -224)"/><path d="M263.08,447.08c.91-.85,1.85-2.46,2.72-2.42a24.74,24.74,0,0,1,5.49,1.35c-1.71,3.08-3.29,5.95-5.54,10,.62-2.94,1.09-4.67,1.31-6.44a16.33,16.33,0,0,0-.2-3.18L263,447Z" transform="translate(-173 -224)"/><path d="M374,421.46l5,.77c-.4-1.8-.69-3.13-1-4.47l.54-.23,4.55,9.1-9.63-4.21Z" transform="translate(-173 -224)"/><path d="M210.66,324.77l1-4.82,3.3,1.14v8.59c-1.78-2-3.09-3.5-4.42-5Z" transform="translate(-173 -224)"/><path d="M242.09,274.93l-.47,3.56,5.57-.72c-2.39,2.14-2.84,4.15,1,5.2-2.35.14-8.94-4.08-8.63-5.8C239.69,276.3,241.19,275.67,242.09,274.93Z" transform="translate(-173 -224)"/><path d="M249.41,449.7c1.16-4.11,2.07-7.38,3-10.74l3.2,1.68C253.54,443.67,251.63,446.46,249.41,449.7Z" transform="translate(-173 -224)"/><path d="M293.86,460.08a8.09,8.09,0,0,1-.32-2.05c.19-2.78.49-5.55.79-8.83l5.32,1.06v.64l-6,.9,4.42,3.14Z" transform="translate(-173 -224)"/><path class="a198a03b-18b4-47e0-ab57-d35cd6cf3ffd" d="M300.86,341.84c9,.07,15.68,6.2,15.46,14.18-.21,7.65-7,13.6-15.64,13.65-8.25.05-15.47-6.36-15.57-13.82C285,348.15,292.17,341.77,300.86,341.84Z" transform="translate(-173 -224)"/><path class="a198a03b-18b4-47e0-ab57-d35cd6cf3ffd" d="M267.11,256.14l-9.3,4.2c-.21-5.32,2.79-6.39,9.38-4.08Z" transform="translate(-173 -224)"/><path class="a198a03b-18b4-47e0-ab57-d35cd6cf3ffd" d="M217.08,309.07l-3-9.07,1.76-.84c1.58,1.7,3.52,3.22,4.54,5.21C220.76,305,218.68,306.9,217.08,309.07Z" transform="translate(-173 -224)"/><path class="a198a03b-18b4-47e0-ab57-d35cd6cf3ffd" d="M337.45,262.79c-9.15-.06-9.59-.55-6.64-7.8Z" transform="translate(-173 -224)"/><path class="a198a03b-18b4-47e0-ab57-d35cd6cf3ffd" d="M313.62,253l6.08,1.15c-.95,2.09-1.49,3.86-2.54,5.23-.32.41-2.89-.05-3-.51A29.84,29.84,0,0,1,313.62,253Z" transform="translate(-173 -224)"/><path class="a198a03b-18b4-47e0-ab57-d35cd6cf3ffd" d="M334.9,266.25l7.88-5.94,1.07.68a52.16,52.16,0,0,1-4.56,6.69C338.91,268.1,336.72,266.88,334.9,266.25Z" transform="translate(-173 -224)"/><path class="a198a03b-18b4-47e0-ab57-d35cd6cf3ffd" d="M385.1,290.65c1.56,2.05,2.43,3.19,3.85,5.07-2.1.83-3.68,1.74-5.36,2-.56.08-2.11-1.92-1.9-2.41C382.33,293.81,383.6,292.59,385.1,290.65Z" transform="translate(-173 -224)"/><path class="a198a03b-18b4-47e0-ab57-d35cd6cf3ffd" d="M387.76,290.18,380,281.86c2.57,0,4.88-.41,5.08.07a67.08,67.08,0,0,1,2.52,8.35Z" transform="translate(-173 -224)"/><path class="a198a03b-18b4-47e0-ab57-d35cd6cf3ffd" d="M364.69,430.13c1.87,2.79,3.28,4.44,4.06,6.35.2.49-1.58,1.79-2.45,2.72a29.25,29.25,0,0,1-4.11-4.76C361.88,433.92,363.34,432.36,364.69,430.13Z" transform="translate(-173 -224)"/><path class="a198a03b-18b4-47e0-ab57-d35cd6cf3ffd" d="M206.89,392.32c.5,1.39,1.8,3.23,1.33,4.08a9,9,0,0,1-4.35,3.71c-.78.31-3.46-1.7-3.34-2.16a28.64,28.64,0,0,1,2.72-5.71Z" transform="translate(-173 -224)"/><path class="a198a03b-18b4-47e0-ab57-d35cd6cf3ffd" d="M288.88,450.33c.68,1.43,2.11,3,1.85,4.26-.32,1.58-2,2.88-3.09,4.3-.92-1.33-2.54-2.63-2.59-4-.05-1.52,1.3-3.1,2-4.66Z" transform="translate(-173 -224)"/><path class="a198a03b-18b4-47e0-ab57-d35cd6cf3ffd" d="M354.11,442.14a4.8,4.8,0,0,1-.09,1.48c-.58,1.5-1.26,3-1.9,4.45-1.24-.91-3-1.58-3.56-2.8s0-3,.14-4.52c1.56.37,3.13.73,4.69,1.12a4.84,4.84,0,0,1,.89.43Z" transform="translate(-173 -224)"/></svg>